<?xml version="1.0" encoding="utf-8"?>
<!-- Generator: Adobe Illustrator 23.0.5, SVG Export Plug-In . SVG Version: 6.00 Build 0)  -->
<svg version="1.1" id="Capa_1" xmlns="http://www.w3.org/2000/svg" xmlns:xlink="http://www.w3.org/1999/xlink" x="0px" y="0px"
	 viewBox="0 0 1032.2 832.6" style="enable-background:new 0 0 1032.2 832.6;" xml:space="preserve">
<style type="text/css">
	.st0{opacity:0.1;fill:#6C63FF;enable-background:new    ;}
	.st1{fill:#A8A8A8;}
	.st2{opacity:0.1;fill:#FFFFFF;enable-background:new    ;}
	.st3{opacity:0.1;enable-background:new    ;}
	.st4{fill:#464353;}
	.st5{fill:url(#SVGID_1_);}
	.st6{opacity:0.1;}
	.st7{opacity:6.000000e-02;enable-background:new    ;}
	.st8{fill:#FBBEBE;}
	.st9{fill:#133786;}
	.st10{fill:#FFFFFF;}
	.st11{fill:#FED253;}
	.st12{fill:url(#SVGID_2_);}
	.st13{fill:#D6D8E1;}
	.st14{fill:#FE0034;}
	.st15{fill:#444176;}
	.st16{opacity:0.1;fill:none;stroke:#000000;stroke-miterlimit:10;enable-background:new    ;}
	.st17{opacity:5.000000e-02;}
	.st18{opacity:0.2;enable-background:new    ;}
</style>
<title>warning</title>
<ellipse class="st0" cx="531" cy="416.3" rx="466.5" ry="416.3"/>
<ellipse class="st0" cx="172" cy="629.3" rx="172" ry="26.7"/>
<ellipse class="st0" cx="254.7" cy="769.1" rx="66.9" ry="13.8"/>
<ellipse class="st0" cx="711.8" cy="716" rx="66.9" ry="13.8"/>
<ellipse class="st0" cx="484.8" cy="699.8" rx="108.8" ry="18.4"/>
<ellipse class="st0" cx="805.3" cy="608.5" rx="226.9" ry="35.5"/>
<path class="st1" d="M47,546.5c-10.4,20.2-9.1,44.4,3.3,63.4c2,3,3.8,5.2,5.3,5.7c7.1,2.8,21.2,9.6,21.2,9.6l34-13.4
	c0,0,5.5-29.2,10.7-54.3l0,0c3.6-17.1,7-32.3,8.4-34.9c3.5-6.5,0-77.9,0-77.9s-34-2.3-43.3,23.9l-4.1,8L47,546.5z"/>
<path class="st2" d="M92.2,554.4c20.7,23.7,29.4,3.2,29.4,3.2l0,0l0,0c3.6-17.1,7-32.3,8.4-34.9c3.5-6.5,0-77.9,0-77.9
	s-34-2.3-43.3,23.9l-4.1,8C79.9,497.7,77.3,537.3,92.2,554.4z"/>
<path class="st1" d="M96.7,620.4l120-13.9l21.4-140.9l-16.2-36.6c-6.8-15.6-16.3-29.9-28-42.2c-8.1-8.6-18-16.9-28.4-21
	c-1.4-0.6-2.9-1.1-4.3-1.5c-3.4-1-7.1-0.4-10,1.8c-14.8,10.5-20.1,55.1-21.8,76.6c-0.7,8.8-1.9,17.6-3.6,26.3L96.7,620.4z"/>
<path class="st2" d="M176.6,464.1l-25,61.5c13.1-9.6,32.5-61.8,32.5-61.8l17.4,59.5l-13.9-62.7c2-13.6,2.6-27.4,1.8-41.1
	c-1.1-15.7-15.9-41-23.9-53.7c-1.4-0.6-2.9-1.1-4.3-1.5c-3.4-1-7.1-0.4-10,1.8c6.3,12.6,22,44.3,26.9,53.7
	C184.1,431.6,176.6,464.1,176.6,464.1z"/>
<path class="st1" d="M197,625.2h65.1c10.9,0,19.8-8.8,19.8-19.7c0-0.3,0-0.7,0-1c-1.4-27.9-5.1-77.7-13.8-109.3
	c-4.7-17-10.1-26-15.1-30.4c-2.3-2.3-5.4-3.7-8.6-4c-2.5-0.2-4.9,0.4-7,1.7C225.2,474,211.1,535,211.1,535L197,625.2z"/>
<path class="st2" d="M257.1,571.1c2.7,7.4,3.7,16,0,24.3l-14.5,7.2c0,0-39-16.5-34.3-50.4c0,0,1.3-7,14.7-6.5
	C238.5,546.5,252,556.5,257.1,571.1z"/>
<path class="st2" d="M241.6,482c-0.5-11.9,6-16,11.3-17.3c-2.3-2.3-5.4-3.7-8.6-4c-3.7,3.1-6.3,7.3-7.5,12L223.2,539
	C223.2,539,242.4,502,241.6,482z"/>
<path class="st1" d="M179.9,534.5l32.2,44.1l5.6,36.4L197,625.2l-29.9,6.6c-2.9,0.6-5.8,0.8-8.8,0.6l-81.5-7.2l11.1-25.7l38.3-53.8
	L179.9,534.5z"/>
<path class="st2" d="M167.4,519.3c0,0,22,1.5,13.7,39.3s-93.2,40.8-93.2,40.8s18.1-32,45.8-54.9c3.1-2.6,6.1-5.3,9-8.1
	C149.1,530,161.3,518.8,167.4,519.3z"/>
<path class="st3" d="M187.2,547.8c0,0,29.8,27.1,27,68.9"/>
<path class="st3" d="M237.3,462.4c0,0-31.3,41.6-34.8,105.6"/>
<path class="st3" d="M130,444.8c0,0,15.1,68.8-22.7,120.6"/>
<path class="st4" d="M405.7,699.4h163.1c5,0,9.1-4.1,9.1-9.2c0-1.5-0.4-3-1.1-4.3l-81.5-151.5c-2.4-4.4-7.9-6.1-12.4-3.7
	c-1.6,0.8-2.9,2.1-3.7,3.7l-81.6,151.5c-2.4,4.4-0.7,10,3.7,12.4C402.7,699,404.2,699.4,405.7,699.4z M497.7,671.7h-20.8v-20.8h20.8
	V671.7z M497.7,637.1h-20.8v-41.5h20.8V637.1z"/>
<path class="st3" d="M405.7,699.4h163.1c5,0,9.1-4.1,9.1-9.2c0-1.5-0.4-3-1.1-4.3l-81.5-151.5c-2.4-4.4-7.9-6.1-12.4-3.7
	c-1.6,0.8-2.9,2.1-3.7,3.7l-81.6,151.5c-2.4,4.4-0.7,10,3.7,12.4C402.7,699,404.2,699.4,405.7,699.4z M497.7,671.7h-20.8v-20.8h20.8
	V671.7z M497.7,637.1h-20.8v-41.5h20.8V637.1z"/>
<path class="st4" d="M405.7,704.4h163.1c5,0,9.1-4.1,9.1-9.2c0-1.5-0.4-3-1.1-4.3l-81.5-151.5c-2.4-4.4-7.9-6.1-12.4-3.7
	c-1.6,0.8-2.9,2.1-3.7,3.7l-81.6,151.5c-2.4,4.4-0.7,10,3.7,12.4C402.7,704,404.2,704.4,405.7,704.4z M497.7,676.7h-20.8v-20.8h20.8
	V676.7z M497.7,642.1h-20.8v-41.5h20.8V642.1z"/>
<linearGradient id="SVGID_1_" gradientUnits="userSpaceOnUse" x1="86.9326" y1="374.8252" x2="402.7855" y2="374.8252" gradientTransform="matrix(1 0 0 -1 -83.88 798.3987)">
	<stop  offset="0" style="stop-color:#808080;stop-opacity:0.25"/>
	<stop  offset="0.54" style="stop-color:#808080;stop-opacity:0.12"/>
	<stop  offset="1" style="stop-color:#808080;stop-opacity:0.1"/>
</linearGradient>
<path class="st5" d="M316.1,622.8c-0.7-0.5-1.5-0.8-2.3-1.1c-2.7-1-5.5-1.3-8.2-2.2c-1.5-0.5-2.9-1.4-4.1-2.4
	c-0.2-0.2-0.4-0.4-0.6-0.6c1-0.6,1.9-1.3,2.9-1.8c-3-4.9-7.1-9.1-12.1-12c1.6-2.4,5.2-2.2,7.4-4.1c1.1-1.1,1.8-2.4,2-3.9
	c0.8-3.9-0.2-8-1.2-11.9c-1.9-7.6-3.8-15.2-6.9-22.3c-1.4-2.9-2.7-6-3.7-9.1c-2.6-8.6-0.8-18-2.7-26.8c-0.6-2.8-1.6-5.8-0.9-8.5
	c1.1-4.3,5.9-6.9,7-11.3c3.8-15.5,4.5-31.5,6.7-47.3c0.5-3,0.8-6,0.8-9.1c0-3.2-0.6-6.4-0.8-9.5c-0.6-8.9,1.2-17.9,1.9-26.8
	c1.7,2.8,2.9,5.8,3.6,9c0.4,2.9,0.5,5.9,0.2,8.9c-0.1,2-0.3,4-0.6,5.9c-0.5,2.3-1.4,4.5-1.9,6.9c-1.2,4.6-0.9,9.4,1,13.8
	c1.4,3,4.4,5.8,7.5,4.9c2.1-0.6,3.5-2.8,4.4-4.8c3-6.4,4.7-13.7,2.6-20.5c-1.3-4.5-4.3-8.6-4.5-13.3c0-1.9,0.1-3.8,0.4-5.6
	c1.3-10.9-1.5-21.8-2-32.7c-0.2-2.9,0.1-6.5-0.5-9.5c-0.1-0.4-0.2-0.7-0.3-1.1c0.3,0.1,0.5,0.2,0.7,0.3c0.8-1.8,0.7-3.8-0.1-5.6
	c-0.4-0.6-0.7-1.2-0.9-1.8c-0.4-1-0.3-2.2-0.8-3.1c-0.3-0.5-0.6-1-1-1.5c-1.3-1.9-1.4-4.3-1.4-6.6c-0.2-11.8-0.5-23.7-1-35.5
	c-0.3-6-0.6-12.1-2.7-17.8c-1.8-5-5.1-9.3-9.4-12.5c-0.7-0.5-1.4-0.9-2.1-1.3c0.4-0.9,0.6-1.8,0.6-2.7c0-0.3,0-0.6,0-0.9l-0.1-0.5
	l0,0c-0.4-2.1-1-4.1-2-6c-1.1-2-1.7-4.3-1.9-6.6c0-0.4,0-0.8,0.1-1.2l0,0c0.3-2.9,1.8-5.6,2.4-8.5c0.2-0.9,0.2-1.8,0.2-2.7
	c0-0.3,0-0.6,0-1l0,0c-0.4-3.5-1.5-7-3.2-10.1c-0.5-1-1-2-1.6-3c-0.3-1.9-0.5-3.7-0.8-5.6c-0.2-1.1-0.3-2.2-0.6-3.2
	c-0.1-0.5-0.2-1.1-0.4-1.6c1.5-1.5,0.6-3.6-0.3-5.6c-1.9-3.8-1.5-8.3-2.3-12.4c-0.6-2.9-1.6-5.7-2.9-8.3c-0.8-1.9-1.8-3.7-3.2-5.2
	c-1.2-1.2-2.6-2.2-4.1-3c-1.3-0.8-2.6-1.5-4.1-1.9c-0.9-0.2-1.8-0.2-2.7-0.4c-0.6-0.1-1.1-0.3-1.7-0.6c-1.1-0.6-2.3-1.1-3.6-1.3
	c-1.2,0-2.4,0.2-3.5,0.7c-1.2,0.5-2.4,0.9-3.7,1c-0.5,0-0.9,0-1.4,0c-0.7-0.1-1.3,0.1-1.9,0.5c-0.3,0.3-0.6,0.5-0.8,0.8
	c-0.7,0.7-1.5,1.2-2.4,1.6c-7.2,4.2-11.6,12-11.7,20.3c0.1,1.1,0,2.2-0.3,3.3c-0.3,0.8-0.9,1.6-1.1,2.4c-0.2,0.7-0.2,1.5-0.1,2.3
	c0.1,1.2,0.2,2.3,0.3,3.5l0,0c-0.7,0.9-1.2,2.1-1.5,3.2l0,0c0,0.2-0.1,0.4-0.1,0.6v0.1l0,0c-0.1,2.1,0.9,4,1.5,6
	c1,3.9,0.9,8-0.3,11.8c-0.7,2.6-1.8,5.4-2,8l0,0c0,0.1,0,0.1,0,0.2c-0.1,1.4,0,2.7,0.5,4c0.3,0.9,0.8,1.8,1.1,2.7
	c1.1,3.3-0.5,6.7-2.5,9.5l0,0c-0.3,0.5-0.6,0.9-1,1.3h0l0,0l2.1,1.5c-0.6,0.3-1.2,0.7-1.8,1c-2.4,0.4-4.7,1.2-6.8,2.5
	c-2,1-3.8,2.2-5.5,3.7c-1.8,1.8-3.2,3.8-4.3,6c-1.4,2.5-2.6,5.1-3.7,7.8c-0.9,2.1-1.6,4.4-1.9,6.7c-0.9,1.8-1.6,3.8-2.4,5.6
	c-0.4,0.9-0.8,1.8-1.2,2.7l-34.4-84.3l-5.3,2.2l0.4,1l-1.1,0.5l1.5,3.7c-0.2,0.1-0.4,0.3-0.6,0.5l-0.3,0.2l-0.6,0.4l-0.3,0.2
	l-0.6,0.5l-0.2,0.2l-0.7,0.6l0,0c-0.8,0.7-1.5,1.4-2.2,2.1l-1.8,1.9l-0.4,0.4l-0.6,0.6l-0.3,0.4l-0.9,0.9l-0.1,0.1l-0.5,0.5
	l-0.3,0.3c-0.1,0.1-0.3,0.3-0.4,0.4l-0.4,0.4l-0.7,0.6l-0.2,0.2l-0.9,0.7c-1.3,1-2.6,1.8-4,2.6c-5.5,2.8-11.3,5.2-16.6,8.2
	c-2.9,1.6-5.7,3.6-8.2,5.8c-3.5,3.1-6.5,7-10.6,9.3l-0.4,0.2c-7.2,3.7-15.8,1.5-24,1.3c-1.2,0-2.4,0-3.6,0.1
	c-6.7,0.5-12.8,3.2-18.7,6.5c-4.2,2.3-8.2,5-12.3,7.3c-2.6,1.5-5.2,3.1-7.8,4.8c-6.6,4.2-13.3,8.6-20.2,11.8c-6.4,2.9-13,4.8-20,4.5
	H5.1c-0.7,0-1.3-0.1-2-0.2c-0.7,5.3,3.6,9.5,6.3,14.1c1.3,2,2.2,4.3,2.4,6.7c0,0.9,0,1.8-0.2,2.7c-0.6,3.2-2.1,6.4-1.7,9.7
	c0.2,1.9,1,3.7,2.1,5.3c1.8,2.5,4.3,4.8,5.9,7.5c2.5,4,3.2,8.9,4.2,13.6c0.5,3.3,1.7,6.5,3.3,9.4c2.2,3.5,5.5,6,8.6,8.7
	c0.6,0.5,1.1,1,1.7,1.5c0.4,0.4,0.8,0.7,1.2,1.1c3.6,3.7,6.3,9.4,4.1,14.1c-0.1,0.2-0.2,0.3-0.2,0.5c0.2,0.1,0.4,0.2,0.6,0.3
	c2.8,1.4,6.3-0.8,8.6-3.1c1.1-1.1,2.2-2.3,3.2-3.5c2.8-3.1,5.4-6.5,8-9.7c0.7-0.9,1.4-1.7,2.2-2.6c2.8-3.2,6.1-5.9,9.9-8
	c1.9-1,4-1.8,6.1-2.5c3.1-1,6.3-1.7,9.4-2.7c4.3-1.4,8.4-3.1,12.4-5.2c6.9-3.7,13.6-7.9,20-12.4l1-0.6c2.2-1.4,4.1-3,6-4.8
	c0.3-0.4,0.6-0.7,0.9-1.1c1.6-2,2.6-4.4,4-6.5c1.5-2.1,3.4-4,5.6-5.4c6.2-4.1,14.4-5.7,21.7-8h0.1c12.8-3.9,24.6-10.9,34.2-20.3
	l5.5,13.4c-0.6,1.6-1.1,3.2-1.6,4.8c-1.2,4-2.2,8.1-4.6,11.5c-0.8,0.9-1.4,2-1.7,3.1c0,0.8-0.2,1.7-0.4,2.5c-0.3,0.7-1,1.1-1.3,1.8
	c-0.4,1,0.1,2.3-0.4,3.2c-0.3,0.4-0.6,0.7-1,1c-1.4,1.3-1.8,3.3-1.8,5.1c0.1,1.9,0,3.7-0.5,5.5c0.4-0.2,0.8-0.5,1.3-0.7
	c-0.1,0.3-0.1,0.7-0.1,1c0,0.9,0.1,1.9,0.4,2.8c0.7,2.1,1.7,4,2.9,5.8c0.9,1.6,2,3.1,3.1,4.5c2,2.2,4.2,4.2,6.6,5.9l10.1,7.8l-1,4.2
	c-2.2,8.8-4.4,17.8-4.5,26.9c0,4.3,0.3,8.6,0.8,12.9l0.9,8.8c0.7,7.1,1.4,14.1,2.2,21.2c0.5,4.5,1,9,2.6,13.2
	c2.4,6.4-0.3,13.7,0.8,20.4c0.8,5.3,2.4,10.8,0.8,15.9c-0.6,2-1.8,3.9-2.6,5.9c-2,4.9-2.3,10.4-2.4,15.7c-0.3,4.7-0.2,9.4,0.5,14
	c0.9,4.8,2.8,9.5,2.4,14.3c-0.5,6.9-5.6,12.8-6.2,19.7c-0.5,5.5,1.9,10.8,4.5,15.7c1.9,3.6-0.8,8.2-1.8,12.2
	c-2,7.8,1.3,15.8,5.4,22.7c0.1,0.2,0.3,0.4,0.5,0.5c0.5,0.2,0.9-0.3,1.2-0.7s0.4-0.5,0.6-0.7c0,0.3,0.1,0.6,0.1,0.9c0,0.7,0,1.3,0,2
	c0,2.5,0.4,5,1.4,7.4c0.2,0.5,0.3,0.9,0.6,1.3c0.2,0.6,0.6,1.1,1,1.6c1.1,1,2.5,1.6,4,1.7c3.3,0.4,6.7-0.3,10-0.6
	c3.5-0.3,7-0.2,10.6-0.3c0.3,0,0.5,0,0.8-0.2c0.2-0.2,0.4-0.4,0.5-0.7c0.4-1.3,0.4-2.6,0.2-3.9c-0.2-1.1-0.4-2.1-0.8-3.1
	c-0.5-1.7-0.9-3.3-1.3-5c-0.1-0.3-0.1-0.6-0.2-0.9l0.2,0.1c2.2-4.8,4.3-9.7,6.5-14.5c1.1-2.5,2.2-5.1,1.7-7.7
	c-0.4-1.9-1.6-3.5-2.4-5.2c-2-4.1-2.1-8.8-2.1-13.3l-0.1-25.7c5-6.4,8.1-13.9,10-21.8c3,11.1,3.2,22.8,0.6,34
	c-0.5,1.7-0.8,3.4-1,5.2c-0.4,7.1,5.2,13.2,6.6,20.2c0.1,0.5,0.2,1.1,0.1,1.6c-0.2,0.7-0.4,1.3-0.8,1.9c-2.7,4.9-2.4,10.8-2,16.3
	l1.2,0.2c0.3,0.5,0.7,0.9,1.2,1.2l0,0c0.5,0.3,1,0.5,1.5,0.6c1.9,0.4,3.9,0.7,5.8,0.9c2.8,0.3,5.6,0.6,8.5,0.7
	c1.1,0.1,2.2,0.1,3.4,0.2c1.6,0,3.1,0.1,4.7,0.3c1.7,0.4,3.4,0.8,5,1.5c7.3,2.4,15.5,3.8,22.5,0.8c1.6-0.6,3-1.6,4.1-2.9
	c1.8-2,1.7-5-0.3-6.8C316.9,623.2,316.5,622.9,316.1,622.8L316.1,622.8z M219.4,337.7c1.1,2.1,2.1,4.2,3,6.4c1.7,4.2,2.8,9,1.7,13.4
	c-0.3,1.3-2.4,2.3-2.4,3.6c-0.1,0.1-0.1,0.2-0.2,0.3l-6.5-16C216.3,342.8,217.7,340.2,219.4,337.7z M212.2,371.7
	c-1.4-1.9-2.6-3.9-3.5-6.1c-0.1-0.3-0.3-0.5-0.4-0.8c0.4-0.2,0.7-0.4,1-0.7c1-1.3,0.5-3.1,0.6-4.7c0.2-1.4,0.8-2.8,1.6-4l6.1,15
	c-0.6,1.6-1.2,3.3-1.7,4.9C214.6,374.2,213.4,373,212.2,371.7z"/>
<path class="st4" d="M233.8,236.7c-0.1,2.1,0.9,4,1.5,6c1,3.9,0.9,7.9-0.3,11.7c-1.1,4-3,8.2-1.6,12.1c0.3,0.9,0.8,1.8,1.1,2.7
	c1.2,3.8-1.1,7.8-3.6,10.9l9.9,6.9c1.4,1.2,3.2,2,5,2.4c1.9,0.2,4-0.8,4.4-2.6c0.1-0.6,0-1.3,0.1-1.9c0.2-1.7,1.3-3.1,2.8-3.8
	c1.5-0.7,3.1-1,4.8-0.9c6.1,0.3,11.2,4.3,16.8,6.9c3.6,1.6,7.4,2.8,11.3,3.7c2.2,0.6,4.6,1.1,6.6,0s2.9-3.6,2.7-5.9
	c-0.3-2.3-1-4.5-2.1-6.5c-1.1-2-1.7-4.3-1.9-6.5c0-3.4,1.8-6.4,2.5-9.7c0.9-4.7-0.9-9.5-3.1-13.7s-4.8-8.4-5.8-13
	c-0.2-1.4-0.6-2.8-1.1-4.1c-0.5-1-1.2-1.9-2-2.7c-3.7-3.7-9-5.4-14.2-5.8s-10.4,0.5-15.5,1.4c-2,0.3-3.9,0.7-5.8,1.4
	c-2.7,1.1-5.2,2.4-7.6,4.1C236.4,231.4,234,233.8,233.8,236.7z"/>
<g class="st6">
	<path d="M291.3,269.9c0,0.3,0,0.6,0.1,0.9c0.3-2.9,1.9-5.7,2.4-8.6c0.2-1.2,0.3-2.4,0.2-3.6c0,0.5-0.1,1-0.2,1.6
		C293.1,263.5,291.3,266.5,291.3,269.9z"/>
	<path d="M236,246.7c0.1-2-0.1-4.1-0.7-6c-0.6-1.5-1.1-3.1-1.5-4.7c0,0.2-0.1,0.4-0.1,0.6c-0.1,2.1,0.9,4,1.5,6
		C235.7,244,236,245.4,236,246.7z"/>
	<path d="M295.3,284.5c-0.1,1.8-1.1,3.4-2.7,4.4c-2,1.1-4.4,0.6-6.6,0c-3.9-0.9-7.6-2.2-11.3-3.8c-5.5-2.5-10.7-6.5-16.8-6.9
		c-1.6-0.1-3.3,0.2-4.8,0.9c-1.5,0.8-2.5,2.2-2.8,3.8c-0.1,0.6,0,1.3-0.1,1.9c-0.4,1.8-2.5,2.8-4.4,2.6c-1.8-0.4-3.6-1.2-5-2.4
		l-8.9-6.2c-0.3,0.5-0.7,0.9-1,1.3l9.9,6.9c1.4,1.2,3.2,2,5,2.4c1.9,0.2,4-0.8,4.4-2.6c0.1-0.6,0-1.3,0.1-1.9
		c0.2-1.7,1.3-3.1,2.8-3.8c1.5-0.7,3.1-1,4.8-0.9c6.1,0.3,11.2,4.3,16.8,6.9c3.6,1.6,7.4,2.8,11.3,3.8c2.2,0.6,4.6,1.1,6.6,0
		s2.9-3.6,2.7-5.9C295.3,284.8,295.3,284.6,295.3,284.5z"/>
	<path d="M234.6,269.2c0.1,0.4,0.2,0.8,0.3,1.2c0.2-1.1,0.1-2.2-0.3-3.2c-0.3-0.9-0.8-1.8-1.1-2.7c-0.2-0.7-0.4-1.4-0.5-2.1
		c-0.1,1.4,0,2.8,0.5,4.1C233.8,267.5,234.3,268.3,234.6,269.2z"/>
</g>
<path class="st4" d="M246.4,648.7c-0.1,0.3-0.2,0.5-0.5,0.7c-0.2,0.1-0.5,0.2-0.8,0.2c-3.6,0.1-7.1,0-10.7,0.3
	c-3.4,0.3-6.7,1-10.1,0.6c-2.2,0.1-4.2-1.2-5-3.3c-0.2-0.4-0.4-0.9-0.6-1.3c-0.9-2.4-1.4-4.9-1.4-7.4c0-0.7,0-1.3,0-2
	c0-0.7-0.1-1.5-0.3-2.2c-0.3-0.8-0.3-1.7,0.1-2.5c1.4-2.6,4.9-3.1,7.5-3.3c6.1-0.5,12.3,0,18.3,1.3c0.5,2.3,1,4.6,1.6,6.9
	c0.4,1.7,0.9,3.3,1.3,5c0.3,1,0.6,2.1,0.8,3.1C246.9,646,246.8,647.4,246.4,648.7z"/>
<path class="st7" d="M246.4,648.7c-0.1,0.3-0.2,0.5-0.5,0.7c-0.2,0.1-0.5,0.2-0.8,0.2c-3.6,0.1-7.1,0-10.7,0.3
	c-3.4,0.3-6.7,1-10.1,0.6c-2.2,0.1-4.2-1.2-5-3.3c-0.2-0.4-0.4-0.9-0.6-1.3h1.3c4.2,0,8.4-0.2,12.6-0.2c1.3,0,2.5-0.1,3.8-0.2
	s2.3-0.4,3.4-0.5c1.7-0.2,3.5-0.2,5.2-0.2h1.4C246.8,646.1,246.8,647.4,246.4,648.7z"/>
<path class="st4" d="M320,630.1c-1.1,1.3-2.5,2.3-4.1,2.9c-7.1,3-15.4,1.7-22.7-0.8c-1.6-0.6-3.3-1.1-5-1.5
	c-1.6-0.2-3.1-0.3-4.7-0.3c-1.1,0-2.3-0.1-3.4-0.2c-2.9-0.2-5.7-0.5-8.5-0.7c-2-0.1-3.9-0.4-5.9-0.9c-0.5-0.1-1.1-0.4-1.6-0.6l0,0
	c-0.9-0.4-1.4-1.2-1.4-2.2c0.1-1.3,1.4-2,2.6-2.5c10.3-4.5,21.5-6.4,32.6-7.9c1.1-0.2,2.2-0.5,3.3-1c1.3-0.5,1.4,0.3,2,1.2
	c0.3,0.4,0.6,0.8,1,1.2c1.2,1.1,2.6,1.9,4.2,2.4c2.7,1,5.6,1.3,8.3,2.2c0.8,0.3,1.6,0.7,2.3,1.1c2.3,1.3,3.2,4.2,1.9,6.5
	C320.5,629.5,320.2,629.8,320,630.1L320,630.1z"/>
<path class="st7" d="M320,630.1c-1.1,1.3-2.5,2.3-4.1,2.9c-7.1,3-15.4,1.7-22.7-0.8c-1.6-0.6-3.3-1.1-5-1.5
	c-1.6-0.2-3.1-0.3-4.7-0.3c-1.1,0-2.3-0.1-3.4-0.2c0.9-0.9,1.9-1.7,2.8-2.5c0.7-0.7,1.5-1.2,2.4-1.6c1.1-0.4,2.2-0.4,3.4-0.2
	c5.7,0.8,10.9,4.8,16.6,4.5c2.7-0.3,5.3-1.1,7.6-2.5c1.9-0.8,3.6-2,5-3.6c0.4-0.5,0.7-1.1,0.9-1.8c2.3,1.3,3.2,4.2,1.9,6.5
	C320.5,629.5,320.3,629.8,320,630.1L320,630.1z"/>
<path class="st8" d="M318,456.3c-1,2-2.3,4.2-4.4,4.8c-3.1,0.9-6.2-1.9-7.5-4.9c-1.9-4.3-2.2-9.2-1-13.8c0.6-2.3,1.4-4.5,1.9-6.9
	c0.4-2,0.6-3.9,0.6-5.9c0.3-3,0.2-5.9-0.2-8.9c-1.6-8.6-9-15-11.5-23.4c-1.2-4.2-1.2-8.7-1.1-13.1c0-1.1,0.1-2.2,0.3-3.3
	c0.1-0.3,0.2-0.6,0.3-0.9c1.6-3.7,6.5-4.2,9.9-6.3c1.9-1.2,6.1-4.9,7.7-1.5c0.3,0.8,0.6,1.6,0.8,2.4c0.6,3.1,0.4,6.6,0.5,9.5
	c0.6,10.9,3.3,21.8,2.1,32.7c-0.3,1.9-0.4,3.7-0.4,5.6c0.3,4.7,3.2,8.8,4.6,13.3C322.7,442.6,321,450,318,456.3z"/>
<path class="st3" d="M313.9,374.8c-0.7-0.3-1.6-0.3-2.3,0l-6.8,2c-2.4,0.6-4.7,1.5-6.9,2.5c-1,0.5-1.9,1-2.8,1.7
	c0.1-0.3,0.2-0.6,0.3-0.9c1.6-3.7,6.5-4.2,9.9-6.3c1.9-1.2,6.1-4.9,7.7-1.5C313.5,373.1,313.8,373.9,313.9,374.8z"/>
<path class="st4" d="M314.4,374c-0.8-0.5-1.8-0.6-2.7-0.2l-6.8,2c-2.4,0.6-4.7,1.5-6.9,2.5c-1.2,0.6-2.3,1.3-3.3,2.1
	c-3.2-5.5-4-12-4.6-18.3c-0.3-3.7-0.6-7.4-0.7-11c-0.2-2.6-0.1-5.3,0.2-7.9c0.4-3,1.3-5.9,1.8-8.9c0.3-1.7,0.5-3.5,0.6-5.3
	c0.3-3.9,0.1-7.8-0.5-11.6c-0.6-4.1-1.5-8.1-2.8-12c-0.6-1.8-1.4-3.5-2.1-5.3l-0.2-0.6c-1.3-3.2-2.3-6.5-3.1-9.9
	c-0.3-1.4-0.3-2.8-1.4-3.8c1-0.1,2-0.2,3-0.1c0.2,0,0.4,0,0.6,0c4.1,0.3,8.1,1.6,11.4,4c4.3,3.1,7.6,7.5,9.5,12.5
	c2.1,5.6,2.5,11.8,2.7,17.8c0.5,11.8,0.9,23.6,1,35.5c0,2.3,0.1,4.7,1.4,6.6c0.4,0.5,0.7,0.9,1,1.5c0.5,1,0.4,2.1,0.8,3.1
	c0.3,0.6,0.6,1.2,1,1.8C315.1,370.2,315.2,372.2,314.4,374z"/>
<path class="st8" d="M247.8,256.6c-1-0.3-2-0.7-3-1l2.1,0.2C247.2,256,247.6,256.3,247.8,256.6z"/>
<path class="st8" d="M288.8,292.7c-0.2,0.7-0.4,1.4-0.6,2c-0.5,1.6-1.1,3.3-1.9,4.8c-1.1,2.6-2.7,4.9-4.7,6.9
	c-0.7,0.7-1.5,1.2-2.4,1.6c-0.8,0.2-1.5,0.3-2.3,0.2c-2.7,0-5.3,0-8-0.1c-2.1,0-4.1-0.2-6.2-0.6c-2.2-0.6-4.4-1.6-6.3-2.8
	c-7.5-4.6-13.6-11.7-16.2-20c-0.3-1.1-0.6-2.3,0.2-3.2c0.7-0.6,1.6-0.9,2.5-0.9h0.1c2.1-0.3,4.2-1,6.1-2.1c1.2-0.6,2.2-1.6,2.8-2.8
	c0.4-1.5,0.4-3-0.1-4.4l-2.2-10.1c-0.2-1.6-0.8-3.2-1.8-4.5c0.6,0.2,1.3,0.4,2,0.6c6.2,1.7,12.9,0.7,19,2.9c2.3,0.9,4.6,2.4,5.3,4.8
	c1.2,4-2.7,8.1-1.6,12.1c0.8,2.7,3.5,4.3,6,5.6l1.7,0.9l4.6,2.4l0.6,0.3l0.1,0c1.5,0.7,3,1.7,3.5,3.2
	C289.3,290.5,289.2,291.7,288.8,292.7z"/>
<path class="st3" d="M301,316.2c-0.2,2.6-0.8,5.1-1.8,7.4c-2,4-3.1,8.5-3.1,13c-0.8,13.5-5.9,29.6,1.5,40.9c0.2,0.3,0.4,0.6,0.5,0.9
	c-1.2,0.6-2.3,1.3-3.3,2.1c-3.2-5.5-4-12-4.6-18.3c-0.3-3.7-0.6-7.4-0.7-11c-0.2-2.6-0.1-5.3,0.2-7.9c0.4-3,1.3-5.9,1.8-8.9
	c0.3-1.7,0.5-3.5,0.6-5.3c0.3-3.9,0.1-7.8-0.5-11.6c-0.6-4.1-1.5-8.1-2.8-12c-0.6-1.8-1.4-3.5-2.1-5.3l-0.2-0.6
	c-1.1,2.6-2.7,4.9-4.7,6.9c-0.7,0.7-1.5,1.2-2.4,1.6c-0.8,0.2-1.5,0.3-2.3,0.2c-2.7,0-5.3,0-8-0.1c-2.1,0-4.1-0.2-6.2-0.6
	c-2.2-0.6-4.4-1.6-6.3-2.8c-7.5-4.6-13.6-11.7-16.2-20c-0.3-1.1-0.6-2.3,0.2-3.2c0.7-0.6,1.6-0.9,2.5-0.9h0.1l9,11.1
	c1,1.2,1.9,2.5,2.6,3.9c0.1,0.5,0.4,0.9,0.8,1.2c0.3,0.1,0.7,0.2,1,0.2c8.5,0,19.7,0,28.2,0c0-1.5-0.4-3-1.2-4.2
	c-0.3,0.1-0.6,0.1-0.1-0.1c-0.5-3.2-1.5-6.4-3.1-9.3c-0.1-0.2-0.2-0.4-0.3-0.6c-0.7-1-1.2-2.1-1.5-3.2c1.1-0.3,2.2-0.3,3.3,0
	c1.2,0.5,1.9,1.9,2.4,3.1c0.5,1,0.9,2.1,1.3,3.1c0,0.1,0.1,0.2,0.1,0.3c0.9,2.1,1.4,4.3,1.7,6.5c0.1,0.8,0.3,1.9,0.9,2.1
	c0.1,0,0.2,0.1,0.3,0.1c1.4-0.5,3.1-0.1,4.1,1c1,1.1,1.7,2.5,2,3.9c0.3,1.5,0.8,2.9,1.4,4.2c1.3,2.5-0.7,3.6,1.6,5.1
	c1.1,0.6,2,1.4,2.7,2.5C301,313.1,301.2,314.7,301,316.2z"/>
<path class="st3" d="M242.9,629.8c0.5,2.3,1,4.6,1.6,6.9l-0.1,0.1c-4.6-2-9.3-4.1-14.2-4.5c-4.6-0.4-9.7,0.8-12.8,4.2
	c0-0.7-0.1-1.5-0.3-2.2c-0.3-0.8-0.3-1.7,0.1-2.5c1.4-2.6,4.9-3.1,7.5-3.3C230.8,628,236.9,628.4,242.9,629.8z"/>
<path class="st3" d="M282.3,294.7C282.8,294.7,282.6,294.7,282.3,294.7C282.1,294.8,281.7,294.9,282.3,294.7z"/>
<path class="st3" d="M304,616.8c-4.5,2.8-8.7,6.1-12.5,9.7c-1.1,1.2-2.5,2.2-4,2.9c-1.5,0.5-3.2,0.7-4.8,0.5
	c-6.3-0.3-12.6-0.9-18.8-1.9l0,0c-0.9-0.4-1.4-1.2-1.4-2.2c0.1-1.3,1.4-2,2.6-2.5c10.3-4.5,21.5-6.4,32.6-7.9c1.1-0.2,2.2-0.5,3.3-1
	c1.3-0.5,1.4,0.3,2,1.2C303.3,616.1,303.6,616.5,304,616.8z"/>
<path class="st9" d="M230.6,283.1c1.5,1.3,3.1,2.4,4.6,3.6c4,3.4,6.5,8.1,9,12.8c-1.5,0.5-3.1,0.6-4.6,0.3c-0.8,4.4-0.7,9,0.4,13.4
	c-2,1.4-3.6,3.3-4.5,5.5c-0.7,2.3-1.2,4.6-1.5,7c-1.4,10.4-2.9,20.8-4.3,31.2c0,1-0.4,2-1,2.8c-0.3,0.2-0.5,0.5-0.8,0.8
	c-0.3,0.7-0.4,1.4-0.4,2.1c-0.1,0.7-0.5,1.6-1.3,1.5c-0.4-0.1-0.7-0.3-0.9-0.6c-0.7-0.8-1.4-1.6-2-2.5c-5.9,11.3-8.7,23.5-11.9,35.9
	c-2.2,8.8-4.5,17.7-4.6,26.8c0,4.3,0.3,8.6,0.8,12.9l0.9,8.8c0.7,7.1,1.4,14.1,2.2,21.2c0.5,4.5,1,9,2.6,13.2
	c2.4,6.4-0.3,13.6,0.8,20.4c0.8,5.3,2.4,10.8,0.8,15.9c-0.6,2-1.8,3.9-2.6,5.9c-2.1,4.9-2.3,10.4-2.5,15.7c-0.3,4.7-0.1,9.4,0.5,14
	c0.9,4.8,2.8,9.5,2.4,14.3c-0.5,6.9-5.6,12.8-6.2,19.7c-0.5,5.5,1.9,10.8,4.5,15.7c1.9,3.6-0.8,8.2-1.8,12.2
	c-2,7.7,1.3,15.8,5.4,22.7c0.1,0.2,0.3,0.4,0.5,0.5c0.5,0.2,0.9-0.3,1.2-0.7c3.1-3.9,8.5-5.4,13.5-5s9.7,2.5,14.2,4.5l6.5-14.4
	c1.1-2.5,2.2-5.1,1.7-7.7c-0.4-1.9-1.6-3.5-2.5-5.2c-2-4.1-2.1-8.8-2.1-13.3l-0.1-25.7c5.1-6.4,8.1-13.9,10.1-21.8
	c3,11.1,3.2,22.8,0.6,34c-0.5,1.7-0.8,3.4-1,5.2c-0.4,7.1,5.2,13.2,6.7,20.1c0.1,0.5,0.2,1.1,0.1,1.6c-0.2,0.7-0.4,1.3-0.8,1.9
	c-2.7,4.9-2.4,10.8-2,16.3c7,1.2,14.1,2,21.2,2.3c1.6,0.2,3.2,0,4.8-0.5c1.5-0.7,2.8-1.7,4-2.9c4.5-4.3,9.5-8,14.9-11.3
	c-3-5-7.2-9.1-12.1-12c1.6-2.4,5.3-2.2,7.4-4.1c1.1-1.1,1.8-2.4,2-3.9c0.8-3.9-0.2-8-1.2-11.8c-1.9-7.6-3.9-15.2-7-22.3
	c-1.4-2.9-2.7-6-3.8-9c-2.6-8.6-0.8-18-2.8-26.8c-0.6-2.8-1.7-5.7-1-8.5c1.1-4.3,6-6.9,7.1-11.2c3.9-15.5,4.6-31.5,6.8-47.2
	c0.5-3,0.8-6.1,0.8-9.1c0-3.2-0.6-6.4-0.8-9.5c-0.9-12.7,3.2-25.4,2.1-38.1c-0.7-7.8-3.2-15.4-7.5-22c-7.4-11.4-2.2-27.4-1.5-40.9
	c0.1-4.5,1.1-9,3.1-13c1.1-2.3,1.7-4.8,1.9-7.4c0.3-1.6,0.1-3.2-0.6-4.7c-0.7-1-1.6-1.9-2.7-2.5c-2.3-1.5-0.4-2.6-1.6-5.1
	c-0.6-1.4-1.1-2.8-1.4-4.2c-0.3-1.5-1-2.8-2-3.9c-1-1.1-2.7-1.5-4.1-1c-1,0-1.2-1.3-1.3-2.2c-0.3-3.5-1.7-6.8-3.1-10
	c-0.5-1.2-1.2-2.6-2.4-3.1c-1.1-0.3-2.2-0.3-3.3,0c0.3,1.2,0.8,2.3,1.5,3.3c1.7,3,2.9,6.4,3.4,9.8c-1,0.3,1,0,0,0
	c0.9,1.2,1.4,2.8,1.3,4.3c-8.4,0-19.7,0-28.1,0c-0.3,0-0.7,0-1-0.2c-0.4-0.3-0.7-0.7-0.8-1.2c-0.7-1.4-1.6-2.7-2.6-3.9l-9.9-12.2
	c-0.2-0.3-0.5-0.6-0.9-0.8c-0.4-0.1-0.8-0.1-1.3,0C235.8,280.1,233.4,281.5,230.6,283.1z"/>
<path class="st3" d="M266.2,448.5c1.7,0,3.4,0.4,4.9,1.3c1.5,0.9,2.4,2.5,2.4,4.2c-0.1,1.9-1.6,3.4-2.6,5c-0.6,1-1.2,2-1.5,3.2
	c-0.1,0.3-0.1,0.5-0.1,0.8c0.1,0.4,0.5,0.6,0.9,0.7c2.6,1.2,4.3,3.7,4.4,6.6c-0.1,3.9-3.9,7.1-3.7,11c0.1,0.8,0.2,1.6,0.4,2.4
	c0.5,3.4,0,6.8-1.4,9.9c-1.2,3.1-2.9,6.1-4.2,9.2c-3.5,8.5-4.3,17.8-4,27c0.2,6.2-2,12.2-4,18.1c1.1-12,1.4-24,0.9-36
	c-0.1-3.3-0.5-6.3-0.4-9.6c0.2-5.2,3.1-9.9,3.9-15c0.4-2.9,0.1-5.9,0.2-8.8c0.1-6,1.8-11.9,1.9-17.9
	C264.4,456.3,264,451.9,266.2,448.5z"/>
<path class="st4" d="M224.4,285.2c-2,1-3.8,2.2-5.5,3.7c-1.8,1.8-3.2,3.8-4.4,6c-1.4,2.5-2.6,5.1-3.7,7.8c-1.4,3.4-2.6,7.3-1.6,10.8
	c0.9,3.3,3.4,5.8,5.1,8.7s2.7,6.3,4,9.5c1.8,4.2,4.2,8.2,5.9,12.4s2.8,9,1.7,13.4c-0.3,1.3-2.4,2.3-2.4,3.6c0,2.2,3.2,4.6,5.3,5.2
	c2.4,0.8,5.1-0.4,7.1-2c3.6-2.9,5.9-7.2,7.5-11.6c2.6-7,4-14.4,5.3-21.8c0.9-5.4,1.8-10.9,2.3-16.3c0.5-4.9,0.6-10-0.7-14.7
	c-1.2-4.3-3.6-8.3-6.8-11.4c-2.6-2.5-6.9-5.9-10.6-6C229.8,282.6,227,283.8,224.4,285.2z"/>
<path class="st8" d="M252.9,405.8c-0.2,1.4-1,2.6-2.2,3.3c-1.2,0.7-2.5,1.2-3.8,1.6c-2.7,0.8-5.5,1.5-8.2,0.8
	c-2.1-0.7-4.1-1.8-5.8-3.3L202.5,385c-2.4-1.7-4.7-3.7-6.7-5.9c-1.1-1.4-2.2-2.9-3.2-4.5c-1.3-1.8-2.3-3.8-2.9-5.8
	c-0.2-0.9-0.4-1.9-0.4-2.8c0-0.9,0.2-1.8,0.6-2.6c0.7-1.2,2.3-1.5,3.6-1.8c4.3-1.1,8.8-1.4,13.2-1c0.8,0,1.5,0.5,1.8,1.2
	c0.7,1.2,1.3,2.5,1.9,3.8c0.9,2.2,2.1,4.2,3.6,6.1c1.4,1.5,2.9,3,4.5,4.3c3.2,3,5.8,6.6,9.2,9.4c4,3.2,8.8,5.1,13.3,7.5
	s8.9,5.4,11.2,10C252.6,403.7,252.9,404.7,252.9,405.8z"/>
<path class="st3" d="M287.9,244.1c0,13.7-11.1,24.8-24.8,24.8c-13.7,0-24.8-11.1-24.8-24.8c0-13.7,11.1-24.8,24.8-24.8
	c11.4,0,21.4,7.8,24.1,19C287.7,240.2,287.9,242.1,287.9,244.1z"/>
<path class="st8" d="M287.9,243.1c0,13.7-11.1,24.8-24.8,24.8c-13.7,0-24.8-11.1-24.8-24.8c0-13.7,11.1-24.8,24.8-24.8
	c11.4,0,21.4,7.8,24.1,19C287.7,239.2,287.9,241.1,287.9,243.1z"/>
<path class="st3" d="M210.4,365.5c-1.1,0.7-2.8,0.5-4.2,0.2c-5.6-1.2-11.7-2.1-16.8,0.3c0-0.9,0.2-1.8,0.6-2.6
	c0.7-1.2,2.3-1.5,3.6-1.8c4.3-1.1,8.8-1.4,13.2-1c0.8,0,1.5,0.5,1.8,1.2C209.2,363,209.8,364.3,210.4,365.5z"/>
<path class="st4" d="M200,331.9c-1.2,4-2.2,8.1-4.6,11.5c-0.8,0.9-1.4,1.9-1.8,3.1c0,0.8-0.2,1.7-0.4,2.5c-0.3,0.7-1.1,1.1-1.4,1.8
	c-0.4,1,0.1,2.3-0.4,3.2c-0.3,0.4-0.6,0.7-1,1c-1.4,1.3-1.7,3.3-1.7,5.1s0.1,3.8-0.5,5.5c5.3-3.1,12-2.2,18-0.9
	c1.7,0.4,3.7,0.6,4.8-0.7s0.5-3.1,0.6-4.7c0.2-2.1,1.6-3.8,2.5-5.8c1-2.1,1.3-4.5,2.1-6.8c1.6-4.7,5-8.5,7.2-13
	c0.8-1.5,1.3-3.2,1.4-4.9c-0.1-2.2-0.7-4.4-1.7-6.4c-2.1-4.6-4.6-9-7.4-13.2c-1.3-1.9-3.5-5.3-5.4-2.3c-1.6,2.4-2.6,5.5-3.8,8.1
	C204,320.5,201.8,326.1,200,331.9z"/>
<path class="st4" d="M290.2,293c-6.1,0.4-12-1.9-16.2-6.4c-0.3-0.3-0.6-0.7-0.7-1.2c-0.1-0.6,0.1-1.2,0.5-1.6
	c1.2-1.9,3.3-3.1,4.2-5.1s0.6-4.3,0.7-6.5c0.2-3.9,1.7-7.8,1.8-11.6c0-1,0-2-0.2-2.9c-0.5-1.4-0.7-2.9-0.8-4.4
	c0.1-2.9,2.8-5.2,3.2-8.1c0.6-3.7-2.5-6.9-5.5-9c-2.3-1.6-4.9-2.9-7.6-3.9c-1.6-0.6-3.3-1-5.1-1.2c-3.2-0.4-6.5-0.1-9.6,1.1
	c-1.3,0.5-2.5,1.1-3.6,1.9c-0.7,0.4-1.2,1-1.6,1.6c-0.3,0.8-0.5,1.6-0.4,2.4c-0.1,4.1,0.4,8.4-1.5,12c-1,1.9-2.7,3.5-3.5,5.5
	c-0.3,0.8-0.6,1.7-0.6,2.6c-0.1,0.9-0.2,1.9-0.1,2.8c-0.1,5.3,0,10.8,2.7,15.4c0.9,1.4,1.8,2.8,2.6,4.3c0.8,1.5,0.7,3.3-0.3,4.8
	c-0.5,0.6-1.2,1.2-2,1.5c-4,1.9-8.6,2.1-12.8,0.5c4.9-4.6,6.4-11.9,3.8-18.1c-0.7-1.2-1.2-2.6-1.4-4c0.1-1.3,0.4-2.5,1-3.7
	c1.4-3.8,1.6-7.8,0.6-11.7c-0.6-2.4-1.7-4.7-1.9-7.1c-0.2-1.8-0.1-3.7,0.2-5.5c1.1-6.7,5.9-12.2,12.3-14.2c0.5-0.2,1-0.3,1.6-0.5
	c2.4-0.5,4.9-0.8,7.4-0.8c5.5-0.2,11.2-0.3,16.5,1.1c3.1,0.8,6.1,2.3,8.6,4.4c1.8,1.5,3.2,3.4,4.1,5.5c0.5,1.2,0.9,2.5,1.2,3.8
	c0.2,1.1,0.4,2.1,0.6,3.2c1.2,7.7,2.4,15.5,1.1,23.2c-0.5,3-1.4,6-1.8,9.1C286.7,279.2,288.5,286.2,290.2,293z"/>
<circle class="st10" cx="254.7" cy="301.1" r="1.9"/>
<circle class="st10" cx="286.1" cy="300.2" r="1.9"/>
<path class="st3" d="M254.7,207.1l-4-7.6c0.3-0.3,0.5-0.6,0.8-0.8c0.6-0.4,1.3-0.5,1.9-0.5L254.7,207.1z"/>
<path class="st3" d="M265.7,197.9l-4.5,6.7l-2.6-7.4c1.1-0.5,2.3-0.7,3.5-0.7C263.4,196.8,264.6,197.2,265.7,197.9z"/>
<g class="st6">
	<path d="M248.5,283.5c-0.5,0.6-1.2,1.2-2,1.5c-3.5,1.7-7.6,2-11.4,1c-0.4,0.5-0.9,1-1.4,1.5c4.1,1.6,8.8,1.5,12.8-0.5
		c0.8-0.3,1.5-0.9,2-1.5c0.7-1,0.9-2.3,0.6-3.5C249,282.6,248.8,283.1,248.5,283.5z"/>
	<path d="M237.6,250.1c0.3,1.3,0.5,2.7,0.6,4c0.1-2-0.1-4-0.6-6c-0.6-2.4-1.7-4.7-1.9-7.1c0-0.3,0-0.6,0-0.9c0,1,0,2,0,2.9
		C236,245.4,237,247.7,237.6,250.1z"/>
	<path d="M289.4,263.1c0.4-2.6,0.6-5.3,0.5-8c0,2-0.2,4-0.5,6c-0.5,3-1.4,6-1.8,9.1c-0.2,1.6-0.3,3.3-0.2,5c0-1,0.1-2,0.2-3
		C288,269.1,288.9,266.2,289.4,263.1z"/>
	<path d="M237.4,267.4c-0.5-1-0.9-2-1.3-3.1c-0.1,0.4-0.1,0.7-0.1,1.1c0.2,1.4,0.7,2.8,1.4,4c0.7,1.7,1.2,3.5,1.3,5.3
		C238.9,272.2,238.5,269.7,237.4,267.4z"/>
	<path d="M280.3,257.7c0.1,0.5,0.2,0.9,0.2,1.4c0-0.1,0-0.3,0-0.4c0-1,0-2-0.2-2.9c-0.2-1-0.6-2.1-0.8-3.1c0,0.2-0.1,0.5-0.1,0.7
		C279.6,254.8,279.8,256.3,280.3,257.7z"/>
	<path d="M274,284.6c-0.2-0.2-0.3-0.3-0.4-0.5c-0.2,0.4-0.3,0.9-0.3,1.3c0.1,0.5,0.4,0.9,0.7,1.2c4.2,4.5,10.1,6.8,16.2,6.4
		c-0.2-0.7-0.3-1.3-0.5-2C283.8,291.3,278.1,288.9,274,284.6z"/>
	<path d="M282.7,243.3c0,0,0-0.1,0-0.1c0.6-3.7-2.5-6.9-5.5-9c-2.3-1.6-4.9-2.9-7.6-3.9c-1.6-0.6-3.3-1-5.1-1.2
		c-3.2-0.4-6.5-0.1-9.6,1.1c-1.3,0.5-2.5,1.1-3.6,1.9c-0.7,0.4-1.2,1-1.6,1.6c-0.3,0.8-0.5,1.6-0.4,2.4c0,0.7,0,1.4,0,2.1v-0.1
		c0-0.8,0.1-1.6,0.4-2.4c0.4-0.7,0.9-1.2,1.6-1.6c1.1-0.8,2.3-1.4,3.6-1.9c3.1-1.1,6.3-1.5,9.6-1.1c1.7,0.2,3.4,0.6,5.1,1.2
		c2.7,1,5.2,2.3,7.6,3.9C279.7,237.9,282.2,240.4,282.7,243.3z"/>
	<path d="M247.8,248.1c-1,1.9-2.7,3.5-3.5,5.5c-0.3,0.8-0.6,1.7-0.6,2.6c-0.1,0.9-0.2,1.9-0.1,2.8c0,0.9,0,1.7,0,2.6
		c0-0.2,0-0.4,0-0.6c0-0.9,0-1.9,0.1-2.8c0.1-0.9,0.3-1.8,0.6-2.6c0.8-2,2.5-3.6,3.5-5.5c1.6-3,1.6-6.5,1.5-9.9
		C249.5,242.9,249,245.6,247.8,248.1z"/>
</g>
<path class="st3" d="M287.7,236.7c-0.1,0.2-0.3,0.4-0.5,0.5c-0.4,0.3-0.7,0.5-1.2,0.7c-2.9,1.3-2.8-2.9-4.3-4.3
	c-1-0.7-2.2-1.1-3.4-1c-2.9-0.1-5.9-0.3-8.8-0.4c-4.9-0.2-9.8-0.3-14.6-0.2c-2.3,0-4.7,0.1-7,0.3c-2.7,0.2-5.6,0.5-7.9,1.8
	c-0.8,0.4-1.5,1-2.1,1.6c-0.5,0.6-1.1,1.4-1.9,1.5c1.1-6.7,5.9-12.2,12.3-14.2c10.6-7.9,25.6-6.1,34,4.3c1.8,1.5,3.2,3.4,4.1,5.5
	C287,234.2,287.4,235.4,287.7,236.7z"/>
<path class="st11" d="M286.1,236c-2.9,1.3-2.8-2.9-4.3-4.3c-1-0.7-2.2-1.1-3.4-1c-10.1-0.7-20.3-0.8-30.4-0.3
	c-3.6,0.2-7.6,0.8-10,3.5c-0.6,0.7-1.3,1.6-2.2,1.5c-0.3-2-0.5-4.1-0.7-6.1c-0.1-0.8-0.1-1.5,0.1-2.3c0.3-0.9,0.8-1.6,1.1-2.4
	c0.3-1.1,0.4-2.2,0.3-3.3c0.1-8.3,4.5-15.9,11.7-20.2c0.9-0.4,1.7-1,2.4-1.6c0.3-0.3,0.5-0.6,0.8-0.8c0.6-0.4,1.3-0.5,1.9-0.5
	c0.5,0,1,0,1.4,0c1.3-0.1,2.6-0.5,3.8-1c1.1-0.5,2.3-0.7,3.5-0.7c1.3,0.2,2.5,0.7,3.6,1.3c0.5,0.3,1.1,0.5,1.7,0.6
	c0.9,0.2,1.9,0.2,2.8,0.4c1.5,0.4,2.9,1,4.1,1.8c1.5,0.8,2.9,1.8,4.2,3c1.4,1.6,2.4,3.3,3.2,5.2c1.3,2.6,2.3,5.4,3,8.3
	c0.8,4.1,0.4,8.6,2.3,12.4C288.2,232,289.3,234.6,286.1,236z"/>
<path class="st3" d="M235.4,232.8c0,0,20.7-18.9,51.6-3.2C287,229.6,252.1,221.7,235.4,232.8z"/>
<linearGradient id="SVGID_2_" gradientUnits="userSpaceOnUse" x1="3903.3599" y1="473.7537" x2="4145.0986" y2="473.7537" gradientTransform="matrix(-1 0 0 -1 4148.1201 798.3987)">
	<stop  offset="0" style="stop-color:#808080;stop-opacity:0.25"/>
	<stop  offset="0.54" style="stop-color:#808080;stop-opacity:0.12"/>
	<stop  offset="1" style="stop-color:#808080;stop-opacity:0.1"/>
</linearGradient>
<path class="st12" d="M9.5,329.2c-2.8-4.6-7.1-8.9-6.4-14.1c7.8,0.9,15.1-1,22.2-4.3s13.7-7.6,20.4-11.8c2.6-1.6,5.2-3.3,7.8-4.8
	c4.1-2.4,8.2-5,12.4-7.3c6-3.3,12.1-6,18.9-6.5c1.2-0.1,2.4-0.1,3.7-0.1c8.3,0.2,16.9,2.4,24.2-1.3l0.4-0.2
	c4.1-2.3,7.1-6.1,10.7-9.3c2.6-2.2,5.3-4.1,8.3-5.8c5.4-3,11.2-5.4,16.7-8.2c1.4-0.7,2.7-1.6,4-2.6l0.9-0.8l0.2-0.2
	c0.2-0.2,0.5-0.4,0.7-0.6l0.4-0.4l0.4-0.4l0.3-0.3l0.6-0.5l0.1-0.1l0.9-0.9l0.4-0.4l0.6-0.6l0.4-0.4c0.6-0.6,1.2-1.3,1.8-1.9
	s1.5-1.5,2.2-2.1l0,0l0.7-0.6l0.2-0.2l0.6-0.5l0.3-0.2l0.6-0.4l0.3-0.2c0.3-0.2,0.6-0.4,0.9-0.6c0.3-0.2,0.5-0.3,0.8-0.5l-1.9-4.5
	l5.4-2.2l74.2,180.1l-5.4,2.2l-42.4-103l-0.3,0.3c-9.8,9.7-21.9,16.9-35.1,20.9h-0.1c-7.4,2.2-15.7,3.8-21.9,8
	c-2.2,1.4-4.1,3.3-5.6,5.4c-1.5,2.1-2.5,4.5-4,6.5c-0.3,0.4-0.6,0.7-0.9,1.1c-1.8,1.8-3.8,3.4-6,4.8l-0.9,0.6
	c-6.4,4.5-13.2,8.7-20.1,12.4c-4,2.1-8.2,3.8-12.5,5.2c-3.1,1-6.4,1.7-9.5,2.7c-2.1,0.6-4.2,1.5-6.1,2.5c-5.3,2.8-9.4,7.1-13.2,11.7
	c-3.4,4.1-6.6,8.4-10.3,12.1c-2.3,2.3-5.9,4.5-8.7,3.1l-0.6-0.3c0.1-0.1,0.2-0.3,0.2-0.5c2.2-4.6-0.5-10.4-4.2-14.1
	c-0.4-0.4-0.8-0.8-1.2-1.1s-1.1-1-1.7-1.5c-3.1-2.7-6.5-5.2-8.6-8.7c-1.7-2.9-2.8-6.1-3.3-9.4c-1-4.7-1.7-9.6-4.2-13.6
	c-1.7-2.6-4.2-4.9-6-7.5c-1.2-1.5-1.9-3.3-2.2-5.1c-0.4-3.3,1.1-6.4,1.7-9.7c0.2-0.9,0.2-1.8,0.2-2.7
	C11.7,333.5,10.8,331.2,9.5,329.2z"/>
<rect x="200.8" y="228.9" transform="matrix(0.9245 -0.3811 0.3811 0.9245 -108.3411 102.1001)" class="st13" width="5.7" height="191.5"/>
<path class="st14" d="M20,360.2c2.5,4,3.2,8.7,4.2,13.3c0.5,3.3,1.6,6.4,3.3,9.3c2.1,3.4,5.4,5.9,8.5,8.5c0.6,0.5,1.1,1,1.7,1.5
	c0.4,0.4,0.8,0.7,1.2,1.1c3.6,3.6,6.3,9.3,4.1,13.8c-0.1,0.2-0.1,0.3-0.2,0.5c0.2,0.1,0.4,0.2,0.6,0.3c2.8,1.3,6.2-0.8,8.5-3.1
	c3.6-3.6,6.8-7.9,10.1-11.9c3.8-4.6,7.8-8.8,13-11.5c1.9-1,3.9-1.8,6-2.4c3.1-1,6.3-1.7,9.3-2.7c4.2-1.4,8.3-3.1,12.3-5.1
	c6.8-3.7,13.5-7.7,19.8-12.2l0.9-0.6c2.1-1.3,4.1-2.9,5.9-4.7c0.3-0.3,0.6-0.7,0.9-1.1c1.5-2,2.5-4.3,4-6.3c1.5-2.1,3.4-3.9,5.6-5.3
	c6.1-4.1,14.2-5.6,21.5-7.8h0.1c13-4,24.8-11,34.5-20.5c0.8-0.7,1.4-1.5,1.7-2.5c0.3-1.4-0.5-2.8-1.2-4c-0.9-1.5-1.7-2.9-2.5-4.4
	c-3.7-6.7-7-13.6-9.9-20.7c-0.6-1.6-1.2-3.1-1.8-4.7c-1.5-4-2.9-8.1-4.1-12.2c-0.4-1.4-0.8-2.7-1.2-4.1c-0.1-0.3-0.1-0.5-0.2-0.8
	c-1.7-6.7-3.9-22.3-10.7-17.6c-2,1.5-3.9,3.1-5.6,4.9c-1.3,1.4-2.6,2.7-4,4.1c-1.1,1.1-2.3,2.1-3.5,3.1c-1.3,1-2.6,1.8-4,2.5
	c-5.4,2.8-11.2,5.1-16.5,8.1c-2.9,1.6-5.6,3.5-8.2,5.7c-3.5,3.1-6.4,6.9-10.5,9.1l-0.4,0.2c-7.2,3.6-15.6,1.5-23.8,1.3
	c-1.2,0-2.4,0-3.6,0.1c-6.6,0.5-12.7,3.2-18.6,6.4c-4.1,2.3-8.1,4.9-12.2,7.2c-2.6,1.5-5.1,3.1-7.7,4.7c-6.5,4.1-13.2,8.4-20,11.6
	c-7,3.2-14.2,5.1-21.9,4.2c-0.7,5.1,3.5,9.3,6.3,13.9c1.3,2,2.1,4.2,2.3,6.6c0,0.9,0,1.8-0.2,2.6c-0.6,3.2-2,6.3-1.6,9.5
	c0.3,1.8,1,3.6,2.2,5C15.9,355.4,18.3,357.6,20,360.2z"/>
<path class="st8" d="M223.3,381c0,0,8.8,7.6,17.6,11.7s3,18.7,3,18.7s-9.4,2.2-16-7S223.3,381,223.3,381z"/>
<path class="st15" d="M695.3,511.1c0,0-23.2,30.5-42.5,30.8s-30.5,12.9-21.4,20.7s108.7-4.5,108.7-4.5s0.9-37.5-7.7-43
	S695.3,511.1,695.3,511.1z"/>
<path class="st15" d="M944.8,547.7c0,0,3.6,24.2-7.4,40.7s19.8,22.8,19.8,22.8s22.4,6.2,24-15.9s1.1-39-1-40.8s-3.8-14.2-3.8-14.2
	L944.8,547.7z"/>
<path class="st1" d="M593.6,593.4c0,0-0.8-78.2,76.6-110l18-34.2l8.6-21c6.3-15.4,19.8-26.8,36.1-30.5l13.9-3.1l4.3-18.2
	c4.7-19.8,20.7-35,40.8-38.5c8.5-1.6,17.1-2.4,25.7-2.4c7.8,0.1,14.9,4.3,18.8,11l0,0c0,0,73.3-0.8,76.6,39.1
	c0,0,7.3,36.6,17.9,43.2c0,0,17.9-4.1,35.8,22l19.6,66.8c0,0,51.3,48.1,35.8,92c0,0-21.2,30.1-128.7,9.8c0,0-114.9,35-176-13
	C717.4,606.4,615.6,626,593.6,593.4z"/>
<path class="st16" d="M644.9,581.2c0,0,16.3-22.8,15.5-39.1s3.8-56,3.8-56"/>
<path class="st16" d="M704.4,520.1c0,0,16.3-30.1,14.7-46.4c0,0,17.1-31,30.1-28.5"/>
<path class="st16" d="M794,434.5c0,0,44.8-16.3,47.3-29.3"/>
<path class="st16" d="M810.3,472c0,0,47.3-21.2,47.3-26.9h23.6c0,0,34.2,44.8,30.2,64.4"/>
<path class="st16" d="M865.7,504.6c0,0-45.6-3.3-61.9,9.8s-45.6,19.5-45.6,19.5s-17.1,36.7-23.6,43.2s-17.1,29.3-17.1,29.3"/>
<path class="st16" d="M865.7,547.8c0,0,4.9,17.1,11.4,26.9s16.3,44.8,16.3,44.8"/>
<path class="st16" d="M942.2,597.5c0,0,10.3,28.8,19.4,29"/>
<path class="st16" d="M874.5,474c0,0,26.9,7.3,38.1,24.9s45.5,33.5,45.5,33.5"/>
<path class="st16" d="M886,387.3c0,0,0,37.5,10.6,37.5s34.2,4.1,34.2,4.1"/>
<path class="st16" d="M834.1,342.8c0,0-2.7,64.7-16.6,81.5"/>
<g class="st17">
	<path d="M984.6,516.8L965,450c-17.9-26.1-35.8-22-35.8-22c-10.6-6.5-17.9-43.2-17.9-43.2c-3.3-39.9-76.6-39.1-76.6-39.1l0,0
		c-3.9-6.7-11.1-10.9-18.8-11c-3.5,0-7,0.1-10.5,0.4c2,0.2,3.9,0.5,5.8,0.9l5.7,9.8c0,0,73.3-0.8,76.6,39.1c0,0,7.3,36.7,17.9,43.2
		c0,0,17.9-4.1,35.8,22l19.6,66.8c0,0,51.3,48.1,35.8,92c0,0-10.4,14.9-53.9,16.7c58.6,2.2,71.8-16.7,71.8-16.7
		C1035.9,564.9,984.6,516.8,984.6,516.8z"/>
	<path d="M697.8,605.6c-17.2,3.1-34.7,5-52.2,5.7c20.4,0.8,41.6-1.4,55.3-3.3C699.9,607.2,698.9,606.4,697.8,605.6z"/>
	<path d="M873.8,618.7c-25.1,7-50.9,11.1-76.9,12.2c37.5,1.4,73.1-6.5,87.8-10.2C881.1,620,877.5,619.3,873.8,618.7z"/>
</g>
<path class="st1" d="M222.9,745.7c0,0,22.4-0.7,29.2-5.5s34.5-10.5,36.1-2.8s33.7,38.3,8.4,38.6s-58.8-3.9-65.5-8
	S222.9,745.7,222.9,745.7z"/>
<path class="st18" d="M297,773.2c-25.3,0.2-58.8-3.9-65.5-8c-5.1-3.1-7.2-14.3-7.9-19.5h-0.8c0,0,1.4,18.1,8.2,22.2s40.2,8.3,65.5,8
	c7.3-0.1,9.8-2.7,9.7-6.5C305.2,771.8,302.4,773.2,297,773.2z"/>
<path class="st1" d="M769.2,689.5c0,0-26.4-5.3-33.4-12.3s-38.7-19.3-42.2-10.5s-47.5,38.7-17.6,44s70.4,7,79.2,3.5
	S769.2,689.5,769.2,689.5z"/>
<path class="st18" d="M676,707.3c29.9,5.3,70.4,7,79.2,3.5c6.7-2.7,11.3-15.5,13.2-21.5l0.9,0.2c0,0-5.3,21.1-14.1,24.6
	s-49.3,1.8-79.2-3.5c-8.6-1.5-11.1-5.1-10.2-9.6C666.5,703.9,669.5,706.2,676,707.3z"/>
<path class="st0" d="M516.5,114.9h-6.3c2.4,0,4.4-2,4.4-4.4c0-2.4-2-4.4-4.4-4.4h-50.9c-2.4,0-4.4,2-4.4,4.4c0,2.4,2,4.4,4.4,4.4
	l0,0h6.3c-2.4,0.1-4.3,2.2-4.2,4.6c0.1,2.3,1.9,4.1,4.2,4.2h-8.8c-2.4,0-4.4,2-4.4,4.4c0,2.4,2,4.4,4.4,4.4h50.9
	c2.4,0,4.4-2,4.4-4.4c0-2.4-2-4.4-4.4-4.4h8.8c2.4,0.1,4.5-1.8,4.6-4.2c0.1-2.4-1.8-4.5-4.2-4.6
	C516.8,114.8,516.6,114.8,516.5,114.9z"/>
<path class="st0" d="M714.1,269.7h-6.3c2.4-0.1,4.3-2.2,4.2-4.6c-0.1-2.3-1.9-4.1-4.2-4.2h-50.9c-2.4-0.1-4.5,1.8-4.6,4.2
	c-0.1,2.4,1.8,4.5,4.2,4.6c0.1,0,0.3,0,0.4,0h6.3c-2.4,0.1-4.3,2.2-4.2,4.6c0.1,2.3,1.9,4.1,4.2,4.2h-8.8c-2.4,0-4.4,2-4.4,4.4
	c0,2.4,2,4.4,4.4,4.4c0,0,0,0,0,0h50.9c2.4,0,4.4-2,4.4-4.4c0-2.4-2-4.4-4.4-4.4h8.8c2.4,0.1,4.5-1.8,4.6-4.2
	c0.1-2.4-1.8-4.5-4.2-4.6C714.4,269.7,714.3,269.7,714.1,269.7z"/>
<path class="st0" d="M421.3,241H415c2.4,0.1,4.5-1.8,4.6-4.2c0.1-2.4-1.8-4.5-4.2-4.6c-0.1,0-0.3,0-0.4,0h-50.9
	c-2.4-0.1-4.5,1.8-4.6,4.2c-0.1,2.4,1.8,4.5,4.2,4.6c0.1,0,0.3,0,0.4,0h6.3c-2.4-0.1-4.5,1.8-4.6,4.2c-0.1,2.4,1.8,4.5,4.2,4.6
	c0.1,0,0.3,0,0.4,0h-8.8c-2.4,0-4.4,2-4.4,4.4c0,2.4,2,4.4,4.4,4.4h50.9c2.4,0,4.4-2,4.4-4.4c0-2.4-2-4.4-4.4-4.4h8.8
	c2.4,0.1,4.5-1.8,4.6-4.2c0.1-2.4-1.8-4.5-4.2-4.6C421.5,241,421.4,241,421.3,241L421.3,241z"/>
</svg>
