<?xml version="1.0" encoding="utf-8"?>
<!-- Generator: Adobe Illustrator 23.0.5, SVG Export Plug-In . SVG Version: 6.00 Build 0)  -->
<svg version="1.1" id="light" xmlns="http://www.w3.org/2000/svg" xmlns:xlink="http://www.w3.org/1999/xlink" x="0px" y="0px"
	 viewBox="0 0 512 512" style="enable-background:new 0 0 512 512;" xml:space="preserve">
<style type="text/css">
	.st0{fill:#FFFFFF;}
</style>
<g>
	<path class="st0" d="M426.7,256c-23.5,0-42.7-19.2-42.7-42.7s19.2-42.7,42.7-42.7s42.7,19.2,42.7,42.7S450.1,256,426.7,256z
		 M426.7,192c-12.8,0-21.3,8.5-21.3,21.3c0,12.8,8.5,21.3,21.3,21.3c12.8,0,21.3-8.5,21.3-21.3C448,200.5,439.5,192,426.7,192z"/>
</g>
<g>
	<path class="st0" d="M499.8,362.7c-7.3,0-12.3-4.3-12.3-10.7v-21.3c0-17.1-17.1-32-36.8-32h-73.5c-7.3,0-12.3-4.3-12.3-10.7
		c0-6.4,4.9-10.7,12.3-10.7h73.5c34.3,0,61.3,23.5,61.3,53.3V352C512,358.4,507.1,362.7,499.8,362.7z"/>
</g>
<g>
	<path class="st0" d="M85.3,256c-23.5,0-42.7-19.2-42.7-42.7s19.2-42.7,42.7-42.7s42.7,19.2,42.7,42.7S108.8,256,85.3,256z
		 M85.3,192c-12.8,0-21.3,8.5-21.3,21.3c0,12.8,8.5,21.3,21.3,21.3s21.3-8.5,21.3-21.3C106.7,200.5,98.1,192,85.3,192z"/>
</g>
<g>
	<path class="st0" d="M12.8,362.7C5.1,362.7,0,358.4,0,352v-21.3c0-29.9,28.3-53.3,64.2-53.3h77.1c7.7,0,12.8,4.3,12.8,10.7
		c0,6.4-5.1,10.7-12.8,10.7H64.2c-20.6,0-38.5,14.9-38.5,32V352C25.7,358.4,20.6,362.7,12.8,362.7z"/>
</g>
<g>
	<path class="st0" d="M256,266.7c-36.3,0-64-27.7-64-64s27.7-64,64-64s64,27.7,64,64S292.3,266.7,256,266.7z M256,160
		c-23.5,0-42.7,19.2-42.7,42.7s19.2,42.7,42.7,42.7s42.7-19.2,42.7-42.7S279.5,160,256,160z"/>
</g>
<g>
	<path class="st0" d="M362.7,405.3c-6.4,0-10.7-4.3-10.7-10.7V352c0-17.1-14.9-32-32-32H192c-17.1,0-32,14.9-32,32v42.7
		c0,6.4-4.3,10.7-10.7,10.7c-6.4,0-10.7-4.3-10.7-10.7V352c0-29.9,23.5-53.3,53.3-53.3h128c29.9,0,53.3,23.5,53.3,53.3v42.7
		C373.3,401.1,369.1,405.3,362.7,405.3z"/>
</g>
</svg>
