<?xml version="1.0" encoding="utf-8"?>
<!-- Generator: Adobe Illustrator 23.0.5, SVG Export Plug-In . SVG Version: 6.00 Build 0)  -->
<svg version="1.1" id="Layer_1" xmlns="http://www.w3.org/2000/svg" xmlns:xlink="http://www.w3.org/1999/xlink" x="0px" y="0px"
	 viewBox="0 0 512 512" style="enable-background:new 0 0 512 512;" xml:space="preserve">
<style type="text/css">
	.st0{fill:#FFFFFF;}
</style>
<g>
	<path class="st0" d="M241,512H120C53.8,512,0,458.2,0,392V120C0,53.8,53.8,0,120,0h121c66.2,0,120,53.8,120,120v20c0,11-9,20-20,20
		s-20-9-20-20v-20c0-44.1-35.9-80-80-80H120c-44.1,0-80,35.9-80,80v272c0,44.1,35.9,80,80,80h121c44.1,0,80-35.9,80-80v-20
		c0-11,9-20,20-20s20,9,20,20v20C361,458.2,307.2,512,241,512z"/>
	<path class="st0" d="M434,352c-5.1,0-10.3-2-14.2-5.9c-7.8-7.8-7.8-20.5,0-28.3l46.3-46.2c3.8-3.8,5.8-8.7,5.8-14
		c0-5.3-2.1-10.2-5.8-14L420,198.3c-7.9-7.7-8-20.4-0.3-28.3c7.7-7.9,20.4-8,28.3-0.3l46.3,45.5c0,0,0.1,0.1,0.1,0.1
		c11.3,11.3,17.6,26.4,17.6,42.4c0,16-6.2,31-17.6,42.4l-46.3,46.2C444.2,350.1,439.1,352,434,352L434,352z M433,256
		c0-11-9-20-20-20H197c-11,0-20,9-20,20c0,11,9,20,20,20h216C424,276,433,267,433,256z"/>
</g>
</svg>
