<?xml version="1.0" encoding="utf-8"?>
<!-- Generator: Adobe Illustrator 23.0.5, SVG Export Plug-In . SVG Version: 6.00 Build 0)  -->
<svg version="1.1" id="Capa_1" xmlns="http://www.w3.org/2000/svg" xmlns:xlink="http://www.w3.org/1999/xlink" x="0px" y="0px"
	 viewBox="0 0 512 512" style="enable-background:new 0 0 512 512;" xml:space="preserve">
<style type="text/css">
	.st0{fill:#FFFFFF;}
</style>
<g>
	<g>
		<g>
			<path class="st0" d="M234.1,471.1H60.4c-6.5,0-12.3-3-16.1-8.2c-3.8-5.2-4.8-11.7-2.9-17.9c19.7-61.3,79.9-104.2,146.3-104.2
				c30.9,0,60.6,9.3,85.8,26.9c9,6.3,21.5,4.1,27.8-5c6.3-9,4.1-21.5-5-27.8c-12.5-8.7-25.9-15.8-39.8-21.3
				c18.6-16.9,30.9-40.6,33.1-67c28.2-27.4,65.1-42.5,104.7-42.5c30.9,0,60.6,9.3,85.8,26.9c9,6.3,21.5,4.1,27.8-5
				c6.3-9,4.1-21.5-5-27.8c-12.5-8.7-25.9-15.8-39.8-21.3c20.5-18.6,33.4-45.5,33.4-75.3C496.6,45.7,450.9,0,394.8,0
				C338.6,0,293,45.7,293,101.8c0,29.7,12.8,56.5,33.1,75.1c-2.8,1.1-5.5,2.2-8.3,3.4c-12.5,5.5-24.2,12.2-35.2,20.2
				c-15.1-37.4-51.7-63.9-94.5-63.9c-56.1,0-101.8,45.7-101.8,101.8c0,29.6,12.7,56.3,33,74.9C65.2,333.7,21.2,377.2,3.4,432.8
				c-5.9,18.4-2.8,38,8.6,53.6c11.4,15.6,29,24.6,48.4,24.6h173.7c11,0,20-8.9,20-20S245.1,471.1,234.1,471.1z M394.8,39.9
				c34.1,0,61.9,27.8,61.9,61.9s-27.8,61.9-61.9,61.9s-61.9-27.8-61.9-61.9S360.7,39.9,394.8,39.9z M188.2,176.6
				c34.1,0,61.9,27.8,61.9,61.9s-27.8,61.9-61.9,61.9s-61.9-27.8-61.9-61.9S154,176.6,188.2,176.6z"/>
			<path class="st0" d="M503.2,326.1c-9-6.4-21.4-4.4-27.9,4.6L377,468.1c-2.7,3.1-6.1,3.8-7.9,3.9c-1.9,0.1-5.5-0.1-8.6-3.1
				l-63.7-61.2c-8-7.6-20.6-7.4-28.2,0.6c-7.6,8-7.4,20.6,0.6,28.2l63.8,61.2c9.5,9.1,22.3,14.1,35.4,14.1c1.1,0,2.3,0,3.4-0.1
				c14.3-1,27.6-7.9,36.6-19.1c0.2-0.3,0.5-0.6,0.7-0.9l98.8-138C514.2,345,512.2,332.5,503.2,326.1z"/>
		</g>
	</g>
</g>
</svg>
