<?xml version="1.0" encoding="utf-8"?>
<!-- Generator: Adobe Illustrator 23.0.5, SVG Export Plug-In . SVG Version: 6.00 Build 0)  -->
<svg version="1.1" id="Capa_1" xmlns="http://www.w3.org/2000/svg" xmlns:xlink="http://www.w3.org/1999/xlink" x="0px" y="0px"
	 viewBox="0 0 500 500" style="enable-background:new 0 0 500 500;" xml:space="preserve">
<style type="text/css">
	.st0{fill:none;stroke:#FFFFFF;stroke-miterlimit:10;}
	.st1{fill:none;stroke:#FFFFFF;}
	.st2{fill:#FFFFFF;stroke:#FFFFFF;stroke-miterlimit:10;}
	.st3{fill:#FFFFFF;stroke:#FFFFFF;stroke-width:7;stroke-miterlimit:10;}
	.st4{fill:#FFFFFF;}
</style>
<g>
	<g>
		<g>
			<g>
				<g>
					<g>
						<path class="st0" d="M312.09,167.17c0.01-2.55-2.05-4.61-4.58-4.6c-2.56,0.01-4.6,2.06-4.62,4.6c0,0.21,0.07,0.45,0.11,0.66
							c-0.36,0.44-0.48,0.72-0.48,0.72l-75.55,98.69l4.82,3.18l75.93-98.67v-0.02C310.13,171.64,312.09,169.63,312.09,167.17z"/>
						<g>
							<g>
								<path class="st1" d="M323.34,211.15c0,0,4.11,14.07,14.08,16.74c9.95,2.69,23.08,5.37,23.08,5.37l-34.73,44.86
									c0,0-17.23-1.44-28.88-12.39c-11.66-10.92-5.81-21.59-5.81-21.59L323.34,211.15z"/>
								<path class="st0" d="M325.69,278.88c-0.06,0-17.41-1.44-29.33-12.56l0,0c-5.96-5.61-7.51-11.25-7.52-15.47l0,0
									c0-4.23,1.5-6.98,1.55-7.07l0,0l0.04-0.07l32.37-33.1l0.9-0.9l0.35,1.24c0,0,0.02,0.04,0.06,0.13l0,0
									c0.04,0.1,0.06,0.27,0.12,0.45l0,0c0.15,0.37,0.33,0.93,0.6,1.6l0,0c0.53,1.35,1.33,3.14,2.47,5.01l0,0
									c2.2,3.79,5.63,7.79,10.3,9.04l0,0c7.44,2,16.68,4.01,20.81,4.87l0,0c1.4,0.29,2.2,0.48,2.2,0.48l0,0l1.17,0.22l-35.7,46.17
									L325.69,278.88L325.69,278.88z M291.65,244.62c-0.02,0.07-0.06,0.16-0.15,0.31l0,0c-0.13,0.28-0.31,0.74-0.46,1.27l0,0
									c-0.33,1.12-0.69,2.73-0.69,4.63l0,0c0,3.88,1.37,9.02,7.04,14.37l0,0c9.98,9.38,24.32,11.71,27.68,12.11l0,0
									c0.13,0,0.27,0.04,0.34,0.04l0,0l33.75-43.61c-3.45-0.71-13.74-2.89-21.96-5.11l0,0c-5.27-1.42-8.88-5.79-11.21-9.72l0,0
									c-1.49-2.56-2.48-4.98-2.97-6.34l0,0l-31.37,32.01C291.65,244.56,291.65,244.56,291.65,244.62L291.65,244.62z"/>
							</g>
							<g>
								<path class="st1" d="M309.03,235.91l-2.66,9.72c0,0-2.11,1.75-8.17,1.72c-6.08,0-7.13-3.19-7.13-3.19l13.24-13.56
									L309.03,235.91z"/>
								<path class="st0" d="M291.87,246.34c-1.14-0.93-1.48-1.87-1.52-1.94l0,0l-0.15-0.45l14.11-14.46l5.27,5.93l-0.55,0.49
									l0.55-0.49l0.27,0.29l-2.83,10.33l-0.17,0.15c-0.17,0.13-2.45,1.91-8.65,1.92l0,0c0,0-0.02,0-0.04,0l0,0
									C295.02,248.12,293.05,247.27,291.87,246.34L291.87,246.34z M292.81,245.16c0.89,0.7,2.46,1.43,5.38,1.45l0,0
									c4.75-0.01,6.93-1.11,7.52-1.46l0,0l2.48-9.05l-3.92-4.42l-12.3,12.62C292.14,244.52,292.36,244.83,292.81,245.16
									L292.81,245.16z"/>
							</g>
							<g>
								<path class="st1" d="M300.6,175.47l-33.4,44.56c0,0,23.67,0.77,32.35,8.35c7.78,6.79,7.05,16.72,7.05,16.72l31.28-35.41
									c0,0,3.65-16.99-7.98-25.74C318.27,175.2,300.6,175.47,300.6,175.47z"/>
								<path class="st0" d="M305.88,245.06c0,0,0-0.04,0-0.14l0,0c0-0.13,0.01-0.27,0.01-0.48l0,0c-0.01-2.25-0.5-10-6.82-15.52
									l0,0c-3.58-3.14-10.18-5.17-16.39-6.35l0,0c-6.24-1.2-12.17-1.6-14.48-1.75l0,0c-0.65-0.04-1-0.05-1-0.05l0,0l-1.45-0.04
									l34.29-45.7l0.19-0.29h0.38c0,0,0.06,0,0.17-0.01l0,0c1.91,0.01,18.3,0.22,29.59,8.64l0,0c3.73,2.78,5.94,6.4,7.22,10.02
									l0,0c1.28,3.61,1.63,7.26,1.6,10.18l0,0c0.01,3.68-0.52,6.23-0.55,6.27l0,0l-0.04,0.18l-32.88,37.22L305.88,245.06
									L305.88,245.06z M280.23,220.62c7.08,1.17,15.23,3.23,19.82,7.19l0,0c5.9,5.19,7.06,12.04,7.28,15.37l0,0l29.87-33.83
									c0.02-0.08,0.04-0.14,0.06-0.22l0,0c0.04-0.28,0.11-0.72,0.17-1.24l0,0c0.14-1.05,0.27-2.54,0.27-4.31l0,0
									c0.01-2.8-0.34-6.29-1.54-9.7l0,0c-1.21-3.41-3.27-6.72-6.7-9.3l0,0c-10.37-7.81-25.92-8.36-28.47-8.35l0,0l-32.34,43.13
									C270.85,219.49,275.25,219.82,280.23,220.62L280.23,220.62z"/>
							</g>
						</g>
					</g>
				</g>
				<g>
					<path class="st2" d="M246.38,376.06c-0.29-0.65-0.51-1.06-0.62-1.3l0,0l-0.03-0.01l-0.27-0.45c-0.93-1.57-2.22-3.38-4.14-5.29
						l0,0c-2-2.11-8.43-5.52-17.08-8.47l0,0c-8.69-3.03-19.73-5.91-31.68-8l0,0c-12.77-2.24-30.48-9.23-45.44-20.64l0,0
						c-14.88-11.35-27.2-27.36-27.51-47.49l0,0c-0.02-0.5-0.03-0.97-0.03-1.38l0,0c0.03-19.23,5.86-38.66,11.98-55.63l0,0
						c6.11-16.92,12.56-31.6,13.94-40.15l0,0c0.23-1.41,0.35-2.76,0.35-4.09l0,0c0.13-12.67-10.26-23.23-12.83-25.45l0,0
						c-0.37-0.35-0.5-0.44-0.5-0.44l0,0l-2.66-2.16l26.48-33.23l2.46,1.09c0.04,0.02,24.23,11.08,45.24,20.03l0,0
						c18.31,7.81,42.01,8.64,45.94,8.69l0,0c7.08-0.04,26.3-0.67,45.12-8.7l0,0c21.05-8.9,45.21-19.97,45.27-19.97l0,0l2.44-1.13
						l26.46,33.27l-2.64,2.16c0,0-0.15,0.1-0.48,0.43l0,0c-0.39,0.31-0.92,0.81-1.56,1.44l0,0c-1.27,1.28-2.96,3.15-4.67,5.53l0,0
						c-3.42,4.72-6.67,11.22-6.65,18.49l0,0c-0.01,1.32,0.11,2.69,0.34,4.08l0,0l-3.41,0.57l3.41-0.57
						c1.38,8.55,7.78,23.23,13.94,40.16l0,0c6.1,16.95,11.93,36.39,11.94,55.63l0,0c0,0.44,0.01,0.88-0.02,1.31l0,0
						c-0.32,20.2-12.63,36.22-27.52,47.56l0,0c-14.97,11.38-32.7,18.38-45.46,20.61l0,0c-11.96,2.07-23.02,4.94-31.71,7.96l0,0
						c-8.63,2.99-15.07,6.34-17.07,8.47l0,0c-2,2.01-3.07,3.42-4.04,5.14l0,0c0,0,0,0-1.07,2.08l0,0l-3.26,6.18L246.38,376.06
						L246.38,376.06z M152.73,183.17c0.02,1.68-0.12,3.44-0.43,5.21l0,0c-1.75,10.21-8.23,24.62-14.26,41.38l0,0
						c-6.03,16.66-11.57,35.45-11.56,53.28l0,0c0,0.44,0.01,0.8,0.03,1.2l0,0c0.19,17.24,10.81,31.53,24.79,42.19l0,0
						c13.89,10.64,30.97,17.36,42.46,19.34l0,0c12.27,2.13,23.65,5.08,32.76,8.25l0,0c9.15,3.23,15.89,6.41,19.69,10.11l0,0
						c1.29,1.3,2.39,2.56,3.29,3.8l0,0c0.93-1.29,2.03-2.5,3.32-3.8l0,0c3.78-3.7,10.56-6.87,19.7-10.08l0,0
						c9.1-3.18,20.47-6.13,32.77-8.26l0,0c11.49-1.99,28.55-8.69,42.44-19.34l0,0c13.99-10.64,24.61-24.91,24.83-42.15l0,0
						c0.02-0.38,0.03-0.8,0-1.19l0,0c0.02-17.87-5.51-36.64-11.53-53.32l0,0c-5.99-16.75-12.49-31.15-14.24-41.37l0,0l0,0
						c-0.28-1.75-0.41-3.51-0.42-5.22l0,0c0.13-14.08,8.93-24.48,13.4-28.9l0,0l-19.01-23.88c-6.72,3.03-25.88,11.66-42.98,18.94
						l0,0c-20.24,8.6-40.3,9.17-47.84,9.23l0,0c-4.46-0.08-28.61-0.79-48.6-9.25l0,0c-17.13-7.25-36.28-15.94-42.95-18.95l0,0
						l-19.03,23.86C143.79,158.66,152.58,169.09,152.73,183.17L152.73,183.17z"/>
				</g>
				<g>
					<path class="st2" d="M189.02,164.53c0.02-2.68,2.17-4.86,4.87-4.85c2.68,0,4.85,2.18,4.84,4.85c0,0.27-0.03,0.53-0.06,0.75
						c0.35,0.47,0.48,0.73,0.48,0.73l79.86,104.41l-5.07,3.38l-80.25-104.39v-0.02C191.07,169.25,189.03,167.16,189.02,164.53z"/>
					<g>
						<g>
							<path class="st1" d="M177.09,211.06c0,0-4.35,14.89-14.88,17.71c-10.53,2.82-24.37,5.64-24.37,5.64l36.69,47.51
								c0,0,18.25-1.54,30.55-13.09c12.33-11.55,6.17-22.87,6.17-22.87L177.09,211.06z"/>
							<path class="st0" d="M136.44,233.89l1.24-0.25c0,0,0.87-0.16,2.31-0.5l0,0c1.46-0.29,3.54-0.72,5.92-1.26l0,0
								c4.76-1.06,10.85-2.46,16.1-3.86l0,0c4.63-1.24,8.1-5.05,10.47-8.78l0,0c2.35-3.78,3.58-7.46,3.83-8.23l0,0
								c0.01-0.12,0.04-0.18,0.04-0.18l0,0l0.38-1.29l35.17,35.98l0.02,0.09c0.05,0.08,1.66,3.02,1.64,7.48l0,0
								c0.01,4.45-1.64,10.42-7.96,16.33l0,0c-12.61,11.78-30.94,13.26-31,13.27l0,0l-0.45,0.05L136.44,233.89L136.44,233.89z
								 M174.9,281.09c0.1-0.04,0.21-0.04,0.35-0.05l0,0c0.53-0.07,1.27-0.18,2.21-0.32l0,0c1.87-0.32,4.48-0.87,7.51-1.78l0,0
								c6.02-1.81,13.54-5.04,19.57-10.68l0,0c6.02-5.64,7.45-11.12,7.46-15.18l0,0c0-3.6-1.14-6.12-1.4-6.62l0,0l-33.15-33.9
								c-0.52,1.44-1.55,3.99-3.15,6.69l0,0c-2.46,4.15-6.29,8.76-11.87,10.29l0,0c-8.68,2.31-19.57,4.63-23.2,5.39l0,0
								L174.9,281.09L174.9,281.09z M176.54,211.6l0.55-0.54L176.54,211.6L176.54,211.6z"/>
						</g>
						<g>
							<path class="st1" d="M192.25,237.24l2.83,10.28c0,0,2.2,1.82,8.62,1.83c6.42,0,7.54-3.39,7.54-3.39l-13.99-14.31
								L192.25,237.24z"/>
							<path class="st0" d="M203.7,250.14c-6.57,0.01-8.99-1.88-9.13-2.02l0,0l-0.19-0.15l-2.88-10.52l-0.14-0.41l5.89-6.57
								l14.89,15.29l-0.14,0.44c-0.04,0.12-0.39,1.1-1.66,2.08l0,0c-1.23,0.97-3.29,1.85-6.63,1.85l0,0
								C203.73,250.14,203.72,250.14,203.7,250.14L203.7,250.14z M195.9,247.11c0.28,0.19,0.7,0.38,1.31,0.59l0,0
								c1.28,0.43,3.35,0.88,6.48,0.89l0,0c2.89-0.01,4.54-0.73,5.51-1.4l0,0c0.56-0.39,0.9-0.78,1.08-1.07l0,0l-13.01-13.33
								l-4.15,4.66l2.64,9.58C195.81,247.06,195.85,247.11,195.9,247.11L195.9,247.11z"/>
						</g>
						<g>
							<path class="st1" d="M200.59,172.67l36.12,47.59c0,0-25.28,0.97-34.45,9.02c-8.23,7.19-7.47,17.69-7.47,17.69l-33.08-37.45
								c0,0-3.85-17.98,8.46-27.23C182.52,173.04,200.59,172.67,200.59,172.67z"/>
							<path class="st0" d="M160.98,209.89l-0.04-0.2c-0.02-0.03-0.59-2.76-0.58-6.63l0,0c-0.01-3.11,0.36-6.95,1.72-10.79l0,0
								c1.34-3.82,3.68-7.64,7.64-10.59l0,0c12.6-9.44,30.79-9.8,30.85-9.8l0,0l0.44-0.02L238.26,221l-1.5,0.04
								c0,0-0.39,0-1.06,0.06l0,0c-0.75,0.04-1.74,0.12-3,0.24l0,0c-2.51,0.21-5.91,0.56-9.64,1.21l0,0
								c-7.43,1.21-15.95,3.51-20.26,7.34l0,0c-6.69,5.8-7.22,14.01-7.22,16.39l0,0c0,0.24-0.01,0.41,0,0.51l0,0
								c0,0.12,0,0.14,0,0.14l0,0l0.17,2.36L160.98,209.89L160.98,209.89z M194.05,244.93c0.21-3.52,1.45-10.77,7.69-16.24l0,0
								c4.87-4.2,13.56-6.41,21.08-7.71l0,0c5.33-0.9,10.09-1.28,12.37-1.43l0,0l-34.95-46.07c-0.12,0-0.24,0-0.39,0.03l0,0
								c-0.52,0-1.27,0.06-2.19,0.16l0,0c-1.87,0.18-4.47,0.5-7.48,1.1l0,0c-6,1.24-13.5,3.64-19.49,8.17l0,0
								c-3.66,2.73-5.84,6.25-7.1,9.83l0,0c-1.29,3.61-1.66,7.3-1.66,10.27l0,0c0,2.8,0.32,4.96,0.47,5.87l0,0
								c0,0.08,0.05,0.16,0.05,0.23l0,0L194.05,244.93L194.05,244.93z"/>
						</g>
					</g>
				</g>
			</g>
		</g>
	</g>
</g>
<line class="st3" x1="305.01" y1="170.33" x2="183.39" y2="328.72"/>
<line class="st3" x1="196.01" y1="168.33" x2="322.13" y2="331.22"/>
<circle class="st4" cx="194.01" cy="165.33" r="5.5"/>
<circle class="st4" cx="307.01" cy="167.33" r="5.5"/>
</svg>
